HIERARCHY
ROOT hip
{
  OFFSET 0 0 0
  CHANNELS 6 Xposition Yposition Zposition Zrotation Yrotation Xrotation
  JOINT abdomen
  {
    OFFSET 0 20.6881 -0.73152
    CHANNELS 3 Zrotation Xrotation Yrotation
    JOINT chest
    {
      OFFSET 0 11.7043 -0.48768
      CHANNELS 3 Zrotation Xrotation Yrotation
      JOINT neck
      {
        OFFSET 0 22.1894 -2.19456
        CHANNELS 3 Zrotation Xrotation Yrotation
        JOINT head
        {
          OFFSET -0.24384 7.07133 1.2192
          CHANNELS 3 Zrotation Xrotation Yrotation
          JOINT leftEye
          {
            OFFSET 4.14528 8.04674 8.04672
            CHANNELS 3 Zrotation Xrotation Yrotation
            End Site
            {
              OFFSET 1 0 0
            }
          }
          JOINT rightEye
          {
            OFFSET -3.6576 8.04674 8.04672
            CHANNELS 3 Zrotation Xrotation Yrotation
            End Site
            {
              OFFSET 1 0 0
            }
          }
        }
      }
      JOINT rCollar
      {
        OFFSET -2.68224 19.2634 -4.8768
        CHANNELS 3 Zrotation Xrotation Yrotation
        JOINT rShldr
        {
          OFFSET -8.77824 -1.95073 1.46304
          CHANNELS 3 Zrotation Xrotation Yrotation
          JOINT rForeArm
          {
            OFFSET -28.1742 -1.7115 0.48768
            CHANNELS 3 Zrotation Xrotation Yrotation
            JOINT rHand
            {
              OFFSET -22.5879 0.773209 7.07136
              CHANNELS 3 Zrotation Xrotation Yrotation
              JOINT rThumb1
              {
                OFFSET -1.2192 -0.487915 3.41376
                CHANNELS 3 Zrotation Xrotation Yrotation
                JOINT rThumb2
                {
                  OFFSET -3.37035 -0.52449 3.41376
                  CHANNELS 3 Zrotation Xrotation Yrotation
                  End Site
                  {
                    OFFSET -1.78271 -1.18214 1.43049
                  }
                }
              }
              JOINT rIndex1
              {
                OFFSET -7.75947 0.938293 5.60832
                CHANNELS 3 Zrotation Xrotation Yrotation
                JOINT rIndex2
                {
                  OFFSET -2.54057 -0.884171 1.56538
                  CHANNELS 3 Zrotation Xrotation Yrotation
                  End Site
                  {
                    OFFSET -1.62519 -0.234802 1.16502
                  }
                }
              }
              JOINT rMid1
              {
                OFFSET -8.24714 1.18213 3.41376
                CHANNELS 3 Zrotation Xrotation Yrotation
                JOINT rMid2
                {
                  OFFSET -3.10165 -0.590103 1.0647
                  CHANNELS 3 Zrotation Xrotation Yrotation
                  End Site
                  {
                    OFFSET -2.48547 -0.328903 0.83742
                  }
                }
              }
              JOINT rRing1
              {
                OFFSET -8.82822 0.546677 1.51678
                CHANNELS 3 Zrotation Xrotation Yrotation
                JOINT rRing2
                {
                  OFFSET -2.60934 -0.819778 -0.0198488
                  CHANNELS 3 Zrotation Xrotation Yrotation
                  End Site
                  {
                    OFFSET -2.33842 -0.294052 0.168128
                  }
                }
              }
              JOINT rPinky1
              {
                OFFSET -8.27202 -0.0477905 -0.4584
                CHANNELS 3 Zrotation Xrotation Yrotation
                JOINT rPinky2
                {
                  OFFSET -1.82734 -0.647385 -0.700984
                  CHANNELS 3 Zrotation Xrotation Yrotation
                  End Site
                  {
                    OFFSET -1.69225 -0.51767 -0.607171
                  }
                }
              }
            }
          }
        }
      }
      JOINT lCollar
      {
        OFFSET 2.68224 19.2634 -4.8768
        CHANNELS 3 Zrotation Xrotation Yrotation
        JOINT lShldr
        {
          OFFSET 8.77824 -1.95073 1.46304
          CHANNELS 3 Zrotation Xrotation Yrotation
          JOINT lForeArm
          {
            OFFSET 28.1742 -1.7115 0.48768
            CHANNELS 3 Zrotation Xrotation Yrotation
            JOINT lHand
            {
              OFFSET 22.5879 0.773209 7.07136
              CHANNELS 3 Zrotation Xrotation Yrotation
              JOINT lThumb1
              {
                OFFSET 1.2192 -0.487915 3.41376
                CHANNELS 3 Zrotation Xrotation Yrotation
                JOINT lThumb2
                {
                  OFFSET 3.37035 -0.52449 3.41376
                  CHANNELS 3 Zrotation Xrotation Yrotation
                  End Site
                  {
                    OFFSET 1.78271 -1.18214 1.43049
                  }
                }
              }
              JOINT lIndex1
              {
                OFFSET 7.75947 0.938293 5.60832
                CHANNELS 3 Zrotation Xrotation Yrotation
                JOINT lIndex2
                {
                  OFFSET 2.54057 -0.884171 1.56538
                  CHANNELS 3 Zrotation Xrotation Yrotation
                  End Site
                  {
                    OFFSET 1.62519 -0.234802 1.16502
                  }
                }
              }
              JOINT lMid1
              {
                OFFSET 8.24714 1.18213 3.41376
                CHANNELS 3 Zrotation Xrotation Yrotation
                JOINT lMid2
                {
                  OFFSET 3.10165 -0.590103 1.0647
                  CHANNELS 3 Zrotation Xrotation Yrotation
                  End Site
                  {
                    OFFSET 2.48547 -0.328903 0.83742
                  }
                }
              }
              JOINT lRing1
              {
                OFFSET 8.82822 0.546677 1.51678
                CHANNELS 3 Zrotation Xrotation Yrotation
                JOINT lRing2
                {
                  OFFSET 2.60934 -0.819778 -0.0198488
                  CHANNELS 3 Zrotation Xrotation Yrotation
                  End Site
                  {
                    OFFSET 2.33842 -0.294052 0.168128
                  }
                }
              }
              JOINT lPinky1
              {
                OFFSET 8.27202 -0.0477905 -0.4584
                CHANNELS 3 Zrotation Xrotation Yrotation
                JOINT lPinky2
                {
                  OFFSET 1.82734 -0.647385 -0.700984
                  CHANNELS 3 Zrotation Xrotation Yrotation
                  End Site
                  {
                    OFFSET 1.69225 -0.51767 -0.607171
                  }
                }
              }
            }
          }
        }
      }
    }
  }
  JOINT rButtock
  {
    OFFSET -8.77824 4.35084 1.2192
    CHANNELS 3 Zrotation Xrotation Yrotation
    JOINT rThigh
    {
      OFFSET 0 -1.70687 -2.19456
      CHANNELS 3 Zrotation Xrotation Yrotation
      JOINT rShin
      {
        OFFSET 0 -36.8199 0.73152
        CHANNELS 3 Zrotation Xrotation Yrotation
        JOINT rFoot
        {
          OFFSET 0.73152 -45.1104 -5.12064
          CHANNELS 3 Zrotation Xrotation Yrotation
          End Site
          {
            OFFSET -1.1221 -3.69964 12.103
          }
        }
      }
    }
  }
  JOINT lButtock
  {
    OFFSET 8.77824 4.35084 1.2192
    CHANNELS 3 Zrotation Xrotation Yrotation
    JOINT lThigh
    {
      OFFSET 0 -1.70687 -2.19456
      CHANNELS 3 Zrotation Xrotation Yrotation
      JOINT lShin
      {
        OFFSET 0 -36.8199 0.73152
        CHANNELS 3 Zrotation Xrotation Yrotation
        JOINT lFoot
        {
          OFFSET -0.73152 -45.1104 -5.12064
          CHANNELS 3 Zrotation Xrotation Yrotation
          End Site
          {
            OFFSET 1.1221 -3.69964 12.103
          }
        }
      }
    }
  }
}
MOTION
Frames:	8
Frame Time:	0.03333
-47.388999999999996 73.2984 -1.7746000000000002 -175.632995 -59.652287 174.702252 0.109444 -0.003387 -0.0 5.260803 -11.905375 3.683525 -2.290999 20.150963 -91.598232 33.641574 21.172746 137.934595 -0.001441 -0.0 0.000393 0.002679 -0.0 -0.004896 -152.128338 14.113141 157.556713 68.862891 -54.700274 61.26185 5.804961 41.794036 -64.809615 -173.197059 1.730721 142.056253 0.594949 -0.588099 -0.088369 8.849829 -12.847424 -7.426026 -14.228777 19.203162 9.560404 70.128974 -56.829121 24.221611 -8.305085 20.652719 5.560767 -174.986722 -39.024452 143.378228 -145.120644 0.26809 -179.211759 -155.547501 1.233895 -179.380822 26.84328 80.012367 10.228648 -138.597163 -13.524195 -134.646798 -0.282759 -1.731474 0.380013 -82.733145 -53.10229 -97.638982 147.575158 -12.297828 -119.565301 176.222378 -24.847791 -146.526368 175.330188 -12.97476 -89.798381 -8.459763 -60.438835 -10.213987 -10.209615 -18.051089 4.565518 -6.798589 9.657424 -0.882137 160.938632 -7.487941 -143.367952 161.241584 1.253258 -142.228249 0.007646 3.555608 -1.116652 155.775896 -2.21811 -172.122801 126.799053 -26.61912 124.511608 84.569904 -52.250656 84.692267 179.999509 75.750922 -0.0 -177.52833 52.640771 -0.0 -0.088208 62.158649 -37.417343 -173.536171 -7.862017 -10.937586 179.980788 75.748232 0.013145 152.51587 21.822511 -125.548646 -40.261414 -31.22702 -170.668129 -66.719835 17.516485 -23.558587
-51.8061 74.8219 -0.2366 -175.754729 -57.97946 176.46754 -0.074417 -7.420382 165.96319 -7.343575 5.15941 -160.622376 17.591805 20.637895 123.69339 -33.525897 17.341313 -66.330441 0.000252 -0.0 -0.000662 0.000252 -0.0 -0.000662 -155.57493 -3.976418 161.93703 91.750217 -62.392801 86.756646 174.240158 -36.054875 -155.113409 -10.982455 0.555564 -2.497018 -166.6318 -4.304767 89.771029 -42.257893 -19.97153 9.792993 -22.045664 26.608064 15.681303 -172.119664 -24.061318 109.784396 7.903707 -24.807713 -3.011994 -7.398686 26.179714 6.042984 0.003247 0.605565 0.190624 -155.462395 -1.109588 171.979086 -152.8723 39.99212 -148.059647 10.331192 24.843069 3.933819 59.825572 -86.722307 81.625945 -57.398107 -13.19392 -38.834362 -143.356615 -70.338149 -60.948546 162.940361 18.634785 -137.100649 -88.928439 -50.831924 -37.599427 166.552712 -56.108467 -137.909335 -6.662702 -11.514261 3.28206 150.029409 1.012474 -109.411617 111.80449 56.305605 -102.277928 162.821861 -3.987485 -143.03024 72.133229 72.975319 -89.989303 -5.864856 0.889302 4.362129 8.19099 -17.575729 7.730125 -36.013535 80.404696 -0.678026 179.991868 75.749289 0.00839 179.414897 53.654911 -180.0 13.639146 -66.180569 81.660335 59.952931 63.41469 54.779172 -179.976833 75.750916 -0.015851 151.085091 30.081319 14.951085 -9.834724 27.77111 -28.748362 59.669135 46.275609 35.413005
-56.484500000000004 75.97319999999999 1.7258 -175.836408 -56.707168 178.687813 1.373648 -6.115443 -0.0 5.390528 -10.929302 7.727792 -2.051273 19.437412 -93.960751 39.03737 25.114006 137.250337 -0.001204 0.0 -0.00248 -0.001204 0.0 -0.00248 -149.905685 22.422174 154.976277 -139.574552 28.923179 141.308571 -79.453121 43.826531 83.998592 26.478936 -72.147141 11.835312 -4.035227 3.931532 0.753856 -5.415088 6.496488 7.049593 -140.683656 1.505001 116.182198 82.116337 -68.914261 32.207204 -8.306107 20.652531 5.560856 -163.180758 -4.724835 143.334496 0.003915 1.770271 0.557374 6.772092 29.707214 4.674573 -8.191066 -17.575983 -7.729039 -128.423847 -29.064388 -127.089662 6.251536 26.219106 -7.46842 9.353426 -77.68373 -28.335594 -175.609061 11.790367 -90.587413 166.183075 12.81974 -139.17812 -178.339807 -19.018886 -88.987861 77.662621 10.55432 -23.856246 0.326353 0.530177 -0.18661 -9.811027 2.504257 0.158217 10.975131 25.789974 -7.640258 163.490325 -5.722659 -143.428708 145.123244 1.974298 179.749135 79.756142 87.675247 -92.916232 -0.551604 1.455428 -0.50921 114.870191 -42.75519 113.727608 0.000525 -0.000478 -0.000675 -3.256636 -19.619535 170.381985 24.445515 -53.395905 141.46287 50.144503 9.685883 41.604228 -0.004873 -0.000478 -0.004873 -27.651099 -35.190401 -180.0 -4.001713 -34.167118 -35.466099 -69.041545 -43.734544 -138.466801
-61.2059 76.77340000000001 3.7243 -177.073179 -55.534692 -178.779998 3.11126 -13.413055 -173.478859 -4.344526 6.701852 -177.403848 5.65384 26.056786 -153.507949 6.014586 49.484671 -156.383063 0.000984 -0.0 -0.002887 -0.00228 -0.0 0.003207 -130.420485 54.549504 134.288274 18.15096 14.290307 23.156257 96.798897 37.127277 -115.058078 -87.940179 64.387791 65.972173 -176.427766 -14.046785 89.706268 -39.313741 -22.659325 3.055668 -26.599947 30.072709 19.415257 -168.573608 -18.727952 110.711251 -0.28668 0.832537 0.162435 -167.311109 -17.31049 144.232278 -0.022527 -1.7269 -0.542714 -156.197177 -19.788875 174.180039 12.254656 41.42456 10.280056 -141.107547 -7.874354 -137.582908 0.049254 0.29231 -0.065598 -133.65916 -26.120365 -153.752905 -126.098328 -67.772095 -21.080952 166.909458 16.925978 -138.628282 78.030468 38.689803 -42.412663 134.323572 -24.500146 -82.257494 -159.640497 -69.973137 -102.395105 54.851218 55.061718 -44.090097 0.33865 0.982079 -0.189597 -3.436122 -0.605124 0.106947 0.001111 0.063637 -0.021412 -8.447323 19.53518 -2.740238 25.537378 -38.087905 24.59768 146.268579 10.528211 143.111408 179.997323 75.750143 0.002762 169.499346 57.253873 144.430418 54.086299 -30.599016 133.00825 173.275422 25.019756 -79.12413 179.997323 75.750143 0.002762 154.085947 41.05493 17.301352 -14.213689 25.532242 -117.850089 -22.563866 50.637419 -172.835502
-64.6435 77.4144 5.1232 -176.812165 -54.322548 -178.232128 3.238347 -10.131151 47.058331 -3.18191 -12.53841 -37.190057 18.845099 17.377881 105.336458 -39.090231 4.7408 -52.254737 0.004135 0.0 0.000194 -0.000104 0.0 -0.003151 0.023029 -0.138665 -0.030721 25.86856 61.952349 -11.777935 63.017046 75.042309 -128.549148 -168.124083 15.323792 139.25037 -7.759798 7.438516 1.682356 -161.33423 -66.771472 110.050399 -166.823098 -43.973616 122.060903 -165.674384 -29.12357 118.278747 -160.938162 -7.48795 143.368218 9.977184 -20.332106 -1.139183 -78.442667 72.882069 96.603099 -158.625867 -27.835424 -179.735666 -149.471039 26.863246 -145.482868 2.975207 2.431299 -1.223496 155.41676 -2.95131 -161.719043 -55.573595 13.608864 4.868497 2.598729 -71.429383 124.442554 179.057333 -9.143787 -143.303333 166.632121 -4.304487 -89.771745 -114.844595 -59.262758 -82.617713 -45.280211 -63.866293 -4.303433 -139.733239 -63.882498 -75.987782 -0.541378 -1.58984 0.295635 179.6671 -48.710861 -141.476407 74.84029 72.961704 -92.8277 -5.110083 28.347581 0.718995 156.865026 55.541939 150.327615 162.66156 55.693263 147.197929 -179.997602 75.750362 -0.002474 169.559276 57.240265 -180.0 10.334833 -59.089153 -39.306474 -90.082828 -13.504147 -164.846821 -179.997602 75.750362 -0.002474 159.514267 44.457869 -80.642078 -16.949978 -15.426763 58.129157 -155.019165 23.335369 -93.628897
-67.7623 78.5119 6.6467 -174.618304 -52.987244 -179.496066 6.286575 -8.989938 15.228173 2.727061 -13.756632 -3.040666 9.120301 26.585606 -172.132768 -13.949967 49.735675 -129.478745 0.00226 0.0 0.001839 0.00226 0.0 0.001839 3.542284 -62.053044 -13.039036 -88.955471 -82.463964 -91.25103 -161.887458 63.926125 -156.002354 -6.615467 -12.817712 -4.08352 -160.052445 2.213163 88.876935 -76.177531 0.378412 28.916775 -4.707626 7.223691 2.855062 7.61852 4.407067 0.221873 -0.220497 0.638253 0.123376 -174.289061 -37.166437 143.620221 -72.352126 72.975088 90.217954 5.104926 27.974762 -0.706205 -144.107452 8.780259 -140.878332 -3.274583 -12.630626 -6.603991 159.221429 -48.38084 -170.491788 149.579166 -35.489068 -139.385809 59.811451 48.875033 79.611682 -156.515048 -52.282457 -133.782846 -176.505042 -20.694802 -88.628585 -20.655194 -69.153616 -13.716899 1.161188 1.86118 -0.66841 163.997078 -16.87089 -109.952896 -0.047518 -0.138694 0.025694 163.548558 -5.613533 -143.438819 145.120785 0.267202 179.213615 144.955683 -51.035051 167.228111 24.989514 -37.659098 24.060622 -38.690318 80.7509 1.487763 -179.959117 75.750366 -0.030545 172.625135 57.509368 -0.0 -10.619052 61.990715 170.529824 34.07264 20.968182 178.43201 -0.016554 0.00184 -0.012416 -17.127831 -26.927964 -8.254749 -18.20918 25.094131 -104.191178 -100.589776 25.827834 -130.334496
-70.864 79.1537 8.1592 -177.043788 -53.817435 -177.072764 2.329928 -12.403751 126.005728 -11.679502 -0.642691 -114.853934 1.094636 21.804686 -111.981152 38.057293 37.138687 147.722734 0.001017 -0.0 -0.002082 0.001695 0.0 0.005559 -149.905459 22.422065 154.97604 -84.240622 58.156056 93.661741 59.071749 9.326014 -0.815691 -48.553693 54.999031 28.268816 2.013056 -1.996399 -0.275394 36.855936 -63.419066 -19.196322 -19.170716 24.114298 13.381448 5.356934 4.709171 -0.196763 -39.28824 53.366217 32.87802 3.336524 0.218173 0.105226 -0.007046 3.557453 1.117226 10.821422 -13.802546 -1.71693 -156.861129 55.541685 -150.330964 22.394219 60.582226 6.268447 85.537383 68.181818 -88.688863 82.994598 -54.735294 96.702392 165.190048 39.627192 -29.735945 -167.709269 -28.657545 -141.720083 89.1357 38.427965 -50.299554 25.510392 -7.297273 -34.348802 148.887833 -12.609021 -120.245328 -179.187881 -47.047265 -113.476918 167.299381 -27.767309 -145.260333 -167.242032 -63.969105 -132.44618 66.264141 72.868531 -83.83675 -2.99 45.62948 -2.936899 -1.298576 3.491641 -1.192135 73.867364 -54.961581 73.502383 0.000829 0.001539 -0.001065 -4.31949 -22.730623 -44.050106 -59.342616 41.999569 -99.232573 55.182643 0.698413 163.46934 179.997612 75.749672 -0.0 160.990841 41.06312 -152.325207 3.926015 -29.491086 110.350202 -160.208863 17.597169 -96.693098
-73.6779 79.265 9.331 178.512599 -55.445724 -173.794548 0.472296 -7.0552 0.0 4.96927 -12.490765 12.108882 19.644182 16.880855 111.178767 -41.978473 8.423553 -61.057827 -0.000502 -0.0 0.000782 -0.000502 -0.0 0.000782 -149.905487 22.421995 154.975846 -85.630248 56.146162 92.586362 178.39948 -70.461689 99.002252 -171.584099 2.34937 141.836263 -166.745046 -4.418455 89.780321 -44.345758 -18.248989 10.395955 -152.105321 -18.556348 121.368235 -62.063678 57.375894 46.095913 -141.107509 35.60086 129.174206 -7.072069 25.655191 6.205454 -0.019796 -1.64448 -0.517347 9.212784 14.191088 1.88252 -146.206554 15.405917 -142.730516 56.489385 82.259704 -19.328951 157.847623 -65.803805 -175.511488 123.167718 26.681122 -130.206451 171.968239 51.462871 -31.378746 -162.450578 -30.807644 -141.023625 -116.308511 -50.009406 -56.954447 18.763403 -47.67501 27.965047 -20.933674 -37.332278 5.933605 84.514199 48.658145 -69.439591 -173.125164 -66.298018 -137.614991 163.185744 -3.937467 -142.97797 0.021706 -1.726307 0.540778 156.422366 -37.36719 -176.297798 80.940217 -51.225987 79.359334 25.383378 -41.833607 27.342988 179.979024 75.750825 0.017259 171.24168 48.91058 6.508758 12.757798 56.269582 23.311651 -30.559233 2.300354 -29.142464 -179.940299 75.750496 -0.049122 162.077079 40.749529 11.648438 -6.699043 33.967545 -82.997878 59.32549 -27.728465 119.961955
